<svg xmlns="http://www.w3.org/2000/svg" width="27" height="26" viewBox="0 0 27 26">
  <defs>
    <style>
      .cls-1 {
        fill: #343434;
        fill-rule: evenodd;
      }
    </style>
  </defs>
  <path id="Forma_1" data-name="Forma 1" class="cls-1" d="M24.167,2.6H20.7V1a0.8,0.8,0,0,0-1.6,0V2.6H14.3V1a0.8,0.8,0,1,0-1.6,0V2.6H7.9V1A0.8,0.8,0,0,0,6.3,1V2.6H2.833A2.133,2.133,0,0,0,.7,4.733V23.666A2.133,2.133,0,0,0,2.833,25.8H24.167A2.133,2.133,0,0,0,26.3,23.666V4.733A2.132,2.132,0,0,0,24.167,2.6ZM24.7,23.666a0.534,0.534,0,0,1-.533.534H2.833A0.534,0.534,0,0,1,2.3,23.666V4.733A0.534,0.534,0,0,1,2.833,4.2H6.3V5.8a0.8,0.8,0,1,0,1.6,0V4.2h4.8V5.8a0.8,0.8,0,1,0,1.6,0V4.2h4.8V5.8a0.8,0.8,0,1,0,1.6,0V4.2h3.467a0.533,0.533,0,0,1,.533.533V23.666ZM6.3,9.8H9.5v2.4H6.3V9.8Zm0,4H9.5v2.4H6.3V13.8Zm0,4H9.5v2.4H6.3V17.8Zm5.6,0h3.2v2.4H11.9V17.8Zm0-4h3.2v2.4H11.9V13.8Zm0-4h3.2v2.4H11.9V9.8Zm5.6,8h3.2v2.4H17.5V17.8Zm0-4h3.2v2.4H17.5V13.8Zm0-4h3.2v2.4H17.5V9.8Z"/>
</svg>
