<svg xmlns="http://www.w3.org/2000/svg" viewBox="0 0 24 24.59"><defs><style>.a{fill:#999;}</style></defs><g transform="translate(-0.719 0.001)"><path class="a" d="M43.42,34.981l-1.168-1.168a1.253,1.253,0,0,0-1.73,0L34.215,40.12l-.869,3.188-.213.213a.409.409,0,0,0,0,.576l0,.008.008,0a.408.408,0,0,0,.576,0l.213-.213,3.188-.869,6.307-6.307a1.222,1.222,0,0,0,0-1.73Zm-8.259,5.352,4.2-4.2L41.1,37.874l-4.2,4.2Zm-.37.789,1.32,1.32-1.814.495Zm8.05-4.991-1.163,1.163-1.739-1.739L41.1,34.392a.413.413,0,0,1,.571,0L42.84,35.56a.4.4,0,0,1,0,.571Z" transform="translate(-19.059 -19.751)"/><path class="a" d="M14.114,19.671H5.227a.41.41,0,0,1,0-.82h9.707l5.046-5.046V5.978L14,0H.719V24.589H12.73l1.325-4.859ZM13.423.82l5.737,5.737H13.423Zm-8.2,4.918h4.1a.41.41,0,1,1,0,.82h-4.1a.41.41,0,1,1,0-.82Zm0,3.279H15.472a.41.41,0,1,1,0,.82H5.227a.41.41,0,0,1,0-.82Zm0,3.279H15.472a.41.41,0,1,1,0,.82H5.227a.41.41,0,1,1,0-.82Zm0,3.279H15.472a.41.41,0,1,1,0,.82H5.227a.41.41,0,0,1,0-.82Z" transform="translate(0)"/></g></svg>