<svg xmlns="http://www.w3.org/2000/svg" xmlns:xlink="http://www.w3.org/1999/xlink" viewBox="0 0 16 14.934">
  <defs>
    <style>
      .cls-1 {
        fill: none;
      }

      .cls-2 {
        opacity: 0.5;
      }

      .cls-3 {
        clip-path: url(#clip-path);
      }

      .cls-4 {
        clip-path: url(#clip-path-2);
      }

      .cls-5 {
        clip-path: url(#clip-path-3);
      }

      .cls-6 {
        fill: #fff;
      }

      .cls-7 {
        clip-path: url(#clip-path-4);
      }
    </style>
    <clipPath id="clip-path">
      <rect id="Rectangle_2181" data-name="Rectangle 2181" class="cls-1" width="16" height="14.933"/>
    </clipPath>
    <clipPath id="clip-path-2">
      <path id="Path_2609" data-name="Path 2609" class="cls-1" d="M983.267-66.467a4.271,4.271,0,0,0,4.267-4.273A4.259,4.259,0,0,0,983.267-75,4.268,4.268,0,0,0,979-70.74,4.279,4.279,0,0,0,983.267-66.467Zm0-7.419a3.153,3.153,0,0,1,3.141,3.146,3.153,3.153,0,0,1-3.141,3.146,3.153,3.153,0,0,1-3.141-3.146A3.153,3.153,0,0,1,983.267-73.886Z" transform="translate(-979 75)"/>
    </clipPath>
    <clipPath id="clip-path-3">
      <path id="Path_2608" data-name="Path 2608" class="cls-1" d="M976-60.067h16V-75H976Z" transform="translate(-976 75)"/>
    </clipPath>
    <clipPath id="clip-path-4">
      <path id="Path_2612" data-name="Path 2612" class="cls-1" d="M976.565-60.667h14.87a.534.534,0,0,0,.565-.507A5.127,5.127,0,0,0,986.627-66h-5.255A5.128,5.128,0,0,0,976-61.174.534.534,0,0,0,976.565-60.667Zm4.808-4.319h5.255a4.114,4.114,0,0,1,4.2,3.3H977.169A4.125,4.125,0,0,1,981.373-64.985Z" transform="translate(-976 66)"/>
    </clipPath>
  </defs>
  <g id="Group_87" data-name="Group 87" class="cls-2" transform="translate(-976 75)">
    <g id="Group_76" data-name="Group 76" class="cls-3" transform="translate(976 -75)">
      <g id="Group_73" data-name="Group 73" class="cls-4" transform="translate(3.2)">
        <g id="Group_72" data-name="Group 72" class="cls-5" transform="translate(-3.2)">
          <path id="Path_2607" data-name="Path 2607" class="cls-6" d="M974-60.8h19.2V-80H974Z" transform="translate(-976.133 74.667)"/>
        </g>
      </g>
      <g id="Group_75" data-name="Group 75" class="cls-7" transform="translate(0 9.6)">
        <g id="Group_74" data-name="Group 74" class="cls-5" transform="translate(0 -9.6)">
          <path id="Path_2610" data-name="Path 2610" class="cls-6" d="M971-55h26.667V-71H971Z" transform="translate(-976.333 75.267)"/>
        </g>
      </g>
    </g>
  </g>
</svg>
