<svg xmlns="http://www.w3.org/2000/svg" viewBox="0 0 42.395 50"><defs><style>.a{fill:#fff;}</style></defs><g transform="translate(-597 -305)"><g transform="translate(597 305)"><path class="a" d="M70.578,0H41.867a2.933,2.933,0,0,0-2.93,2.93v9.961a.977.977,0,0,0,1.953,0V2.93a.978.978,0,0,1,.977-.977H70.578a.978.978,0,0,1,.977.977V39.258a.978.978,0,0,1-.977.977H41.867a.978.978,0,0,1-.977-.977V21.126a.977.977,0,0,0-1.953,0V39.258a2.933,2.933,0,0,0,2.93,2.93H70.578a2.933,2.933,0,0,0,2.93-2.93V2.93A2.933,2.933,0,0,0,70.578,0Z" transform="translate(-38.937)"/></g><g transform="translate(597 321.287)"><path class="a" d="M40.6,167.065a.977.977,0,1,0,.286.69A.983.983,0,0,0,40.6,167.065Z" transform="translate(-38.937 -166.78)"/></g><g transform="translate(600.911 349.146)"><path class="a" d="M80.663,452.346a.976.976,0,1,0,.286.69A.982.982,0,0,0,80.663,452.346Z" transform="translate(-78.996 -452.06)"/></g><g transform="translate(604.818 308.912)"><path class="a" d="M148.688,40.063a.977.977,0,0,0-.977.977V79.321a.978.978,0,0,1-.977.977H119.977a.977.977,0,0,0,0,1.953h26.758a2.933,2.933,0,0,0,2.93-2.93V41.04A.977.977,0,0,0,148.688,40.063Z" transform="translate(-119 -40.063)"/></g><g transform="translate(604.824 312.813)"><path class="a" d="M152.657,80a.977.977,0,0,0-.977.977v38.281a.978.978,0,0,1-.977.977H120.04a.977.977,0,0,0,0,1.953H150.7a2.933,2.933,0,0,0,2.93-2.93V80.977A.977.977,0,0,0,152.657,80Z" transform="translate(-119.063 -80)"/></g><g transform="translate(602.468 312.227)"><path class="a" d="M105.289,74H95.914a.977.977,0,0,0-.977.977v9.375a.977.977,0,0,0,.977.977h9.375a.977.977,0,0,0,.977-.977V74.977A.977.977,0,0,0,105.289,74Zm-.977,9.375H96.89V75.953h7.422Z" transform="translate(-94.937 -74)"/></g><g transform="translate(602.826 327.703)"><path class="a" d="M105.455,232.76a.977.977,0,0,0-1.381,0l-2.6,2.6-1.207-1.207a.977.977,0,0,0-1.381,1.381l1.9,1.9a.977.977,0,0,0,1.381,0l3.287-3.287A.977.977,0,0,0,105.455,232.76Z" transform="translate(-98.603 -232.474)"/></g><g transform="translate(613.308 329.316)"><path class="a" d="M218.307,249H206.914a.977.977,0,0,0,0,1.953h11.393a.977.977,0,0,0,0-1.953Z" transform="translate(-205.937 -249)"/></g><g transform="translate(617.312 312.227)"><path class="a" d="M254.75,74h-6.836a.977.977,0,0,0,0,1.953h6.836a.977.977,0,0,0,0-1.953Z" transform="translate(-246.937 -74)"/></g><g transform="translate(617.312 316.914)"><path class="a" d="M254.75,122h-6.836a.977.977,0,0,0,0,1.953h6.836a.977.977,0,0,0,0-1.953Z" transform="translate(-246.937 -122)"/></g><g transform="translate(617.312 321.602)"><path class="a" d="M254.75,170h-6.836a.977.977,0,0,0,0,1.953h6.836a.977.977,0,0,0,0-1.953Z" transform="translate(-246.937 -170)"/></g><g transform="translate(602.826 335.16)"><path class="a" d="M105.455,309.127a.977.977,0,0,0-1.381,0l-2.6,2.6-1.207-1.207a.977.977,0,1,0-1.381,1.381l1.9,1.9a.977.977,0,0,0,1.381,0l3.287-3.287A.977.977,0,0,0,105.455,309.127Z" transform="translate(-98.603 -308.841)"/></g><g transform="translate(613.308 336.738)"><path class="a" d="M218.307,325H206.914a.977.977,0,0,0,0,1.953h11.393a.977.977,0,0,0,0-1.953Z" transform="translate(-205.937 -325)"/></g></g></svg>