<svg id="flaticon1534688554-svg" xmlns="http://www.w3.org/2000/svg" viewBox="0 0 50 50">
  <defs>
    <style>
      .cls-1 {
        fill: #14b4e0;
      }

      .cls-2 {
        fill: #19567b;
      }
    </style>
  </defs>
  <path id="Path_52" data-name="Path 52" class="cls-1" d="M25.963,13A12.963,12.963,0,1,0,38.925,25.963,12.977,12.977,0,0,0,25.963,13Zm0,24.074A11.111,11.111,0,1,1,37.074,25.963,11.123,11.123,0,0,1,25.963,37.074Z" transform="translate(-0.963 -0.963)"/>
  <path id="Path_53" data-name="Path 53" class="cls-2" d="M47.425,19.444H45.557a21.1,21.1,0,0,0-2.093-5.053l1.32-1.32a2.576,2.576,0,0,0,0-3.642L40.569,5.214a2.638,2.638,0,0,0-3.642,0l-1.32,1.32a21.163,21.163,0,0,0-5.052-2.092V2.574A2.577,2.577,0,0,0,27.981,0H22.018a2.577,2.577,0,0,0-2.574,2.574V4.443a21.15,21.15,0,0,0-5.053,2.093l-1.32-1.32a2.636,2.636,0,0,0-3.642,0L5.214,9.43a2.576,2.576,0,0,0,0,3.642l1.32,1.32a21.078,21.078,0,0,0-2.092,5.052H2.574A2.577,2.577,0,0,0,0,22.018V27.98a2.577,2.577,0,0,0,2.574,2.575H4.443a21.15,21.15,0,0,0,2.093,5.053l-1.32,1.32a2.576,2.576,0,0,0,0,3.642L9.43,44.785a2.635,2.635,0,0,0,3.642,0l1.32-1.32a21.188,21.188,0,0,0,5.053,2.093v1.868A2.577,2.577,0,0,0,22.019,50h5.962a2.577,2.577,0,0,0,2.574-2.574V45.557a21.15,21.15,0,0,0,5.053-2.093l1.32,1.32a2.636,2.636,0,0,0,3.642,0l4.216-4.216a2.576,2.576,0,0,0,0-3.642l-1.32-1.32a21.188,21.188,0,0,0,2.093-5.053h1.868A2.577,2.577,0,0,0,50,27.981V22.018A2.578,2.578,0,0,0,47.425,19.444Zm.722,8.537a.723.723,0,0,1-.722.722H44.1l-.167.716a19.338,19.338,0,0,1-2.419,5.843l-.389.624,2.351,2.351a.723.723,0,0,1,0,1.022l-4.216,4.216a.723.723,0,0,1-1.022,0l-2.351-2.351-.624.389a19.3,19.3,0,0,1-5.843,2.419L28.7,44.1v3.326a.723.723,0,0,1-.722.722H22.018a.723.723,0,0,1-.722-.722V44.1l-.716-.167a19.338,19.338,0,0,1-5.843-2.419l-.624-.389-2.351,2.351a.723.723,0,0,1-1.022,0L6.524,39.259a.723.723,0,0,1,0-1.022l2.351-2.351-.389-.624a19.3,19.3,0,0,1-2.419-5.843L5.9,28.7H2.574a.723.723,0,0,1-.722-.722V22.018a.723.723,0,0,1,.722-.722H5.9l.167-.716a19.318,19.318,0,0,1,2.419-5.843l.389-.624L6.524,11.762a.723.723,0,0,1,0-1.022L10.74,6.524a.723.723,0,0,1,1.022,0l2.351,2.351.624-.389A19.3,19.3,0,0,1,20.58,6.067L21.3,5.9V2.574a.723.723,0,0,1,.722-.722H27.98a.723.723,0,0,1,.723.722V5.9l.716.167a19.338,19.338,0,0,1,5.843,2.419l.624.389,2.351-2.351a.723.723,0,0,1,1.022,0l4.216,4.216a.723.723,0,0,1,0,1.022l-2.351,2.351.389.624a19.276,19.276,0,0,1,2.419,5.843l.167.716h3.326a.723.723,0,0,1,.722.722Z"/>
  <path id="Path_54" data-name="Path 54" class="cls-2" d="M26.259,17a9.259,9.259,0,1,0,9.259,9.259A9.27,9.27,0,0,0,26.259,17Zm0,16.666a7.407,7.407,0,1,1,7.407-7.407A7.416,7.416,0,0,1,26.259,33.666Z" transform="translate(-1.26 -1.26)"/>
</svg>
