<svg xmlns="http://www.w3.org/2000/svg" viewBox="0 0 50 50"><defs><style>.a{fill:#fff;}</style></defs><g transform="translate(40.323 17.742)"><path class="a" d="M403.226,182.452a1.613,1.613,0,1,1,1.613-1.613h1.613a3.222,3.222,0,0,0-2.419-3.111V176h-1.613v1.727a3.219,3.219,0,0,0,.806,6.337,1.613,1.613,0,1,1-1.613,1.613H400a3.222,3.222,0,0,0,2.419,3.111v1.727h1.613v-1.727a3.219,3.219,0,0,0-.806-6.337Z" transform="translate(-400 -176)"/></g><path class="a" d="M39.808,0H11.29V17.742H4.032a4.032,4.032,0,1,0,0,8.065H6.6a2.392,2.392,0,0,0-.148.806,2.422,2.422,0,0,0,2.419,2.419H11.29V50H50V8.493Zm.515,2.528,6.644,5.536H40.323ZM9.677,19.355H28.226v4.839H9.677ZM4.032,24.194a2.419,2.419,0,1,1,0-4.839H8.065v4.839ZM48.387,48.387H12.9V29.032h7.258V27.419H8.871a.806.806,0,0,1,0-1.613h23.6l7.056-4.032-7.056-4.032H12.9V1.613H38.71V9.677h9.677ZM29.839,24.194V19.355h1.613v4.839Zm3.226-.583V19.938l3.213,1.836Z"/><g transform="translate(14.516 3.226)"><path class="a" d="M144,32v8.065h20.968V32Zm19.355,6.452H145.613V33.613h17.742Z" transform="translate(-144 -32)"/></g><g transform="translate(17.742 6.452)"><rect class="a" width="1.613" height="1.613"/></g><g transform="translate(20.968 6.452)"><rect class="a" width="1.613" height="1.613"/></g><g transform="translate(24.194 6.452)"><rect class="a" width="1.613" height="1.613"/></g><g transform="translate(27.419 6.452)"><rect class="a" width="1.613" height="1.613"/></g><g transform="translate(30.645 6.452)"><rect class="a" width="1.613" height="1.613"/></g><g transform="translate(14.516 33.871)"><rect class="a" width="32.258" height="1.613"/></g><g transform="translate(30.645 37.097)"><path class="a" d="M304,368v9.677h16.129V368Zm14.516,8.065h-12.9v-6.452h12.9Z" transform="translate(-304 -368)"/></g><g transform="translate(14.516 37.097)"><rect class="a" width="14.516" height="1.613"/></g><g transform="translate(14.516 40.323)"><rect class="a" width="14.516" height="1.613"/></g><g transform="translate(14.516 43.548)"><rect class="a" width="14.516" height="1.613"/></g></svg>