<svg id="flaticon1534689197-svg" xmlns="http://www.w3.org/2000/svg" viewBox="0 0 50 50">
  <defs>
    <style>
      .cls-1 {
        fill: #19567b;
      }

      .cls-2 {
        fill: #14b4e0;
      }
    </style>
  </defs>
  <g id="Group_139" data-name="Group 139" transform="translate(40.323 17.742)">
    <g id="Group_138" data-name="Group 138">
      <path id="Path_72" data-name="Path 72" class="cls-1" d="M403.226,182.452a1.613,1.613,0,1,1,1.613-1.613h1.613a3.222,3.222,0,0,0-2.419-3.111V176h-1.613v1.727a3.219,3.219,0,0,0,.806,6.337,1.613,1.613,0,1,1-1.613,1.613H400a3.222,3.222,0,0,0,2.419,3.111v1.727h1.613v-1.727a3.219,3.219,0,0,0-.806-6.337Z" transform="translate(-400 -176)"/>
    </g>
  </g>
  <g id="Group_141" data-name="Group 141">
    <g id="Group_140" data-name="Group 140">
      <path id="Path_73" data-name="Path 73" class="cls-1" d="M39.808,0H11.29V17.742H4.032a4.032,4.032,0,1,0,0,8.065H6.6a2.392,2.392,0,0,0-.148.806,2.422,2.422,0,0,0,2.419,2.419H11.29V50H50V8.493Zm.515,2.528,6.644,5.536H40.323ZM9.677,19.355H28.226v4.839H9.677ZM4.032,24.194a2.419,2.419,0,1,1,0-4.839H8.065v4.839ZM48.387,48.387H12.9V29.032h7.258V27.419H8.871a.806.806,0,0,1,0-1.613h23.6l7.056-4.032-7.056-4.032H12.9V1.613H38.71V9.677h9.677ZM29.839,24.194V19.355h1.613v4.839Zm3.226-.583V19.938l3.213,1.836Z"/>
    </g>
  </g>
  <g id="Group_143" data-name="Group 143" transform="translate(14.516 3.226)">
    <g id="Group_142" data-name="Group 142">
      <path id="Path_74" data-name="Path 74" class="cls-2" d="M144,32v8.065h20.968V32Zm19.355,6.452H145.613V33.613h17.742Z" transform="translate(-144 -32)"/>
    </g>
  </g>
  <g id="Group_145" data-name="Group 145" transform="translate(17.742 6.452)">
    <g id="Group_144" data-name="Group 144">
      <rect id="Rectangle_330" data-name="Rectangle 330" class="cls-1" width="1.613" height="1.613"/>
    </g>
  </g>
  <g id="Group_147" data-name="Group 147" transform="translate(20.968 6.452)">
    <g id="Group_146" data-name="Group 146">
      <rect id="Rectangle_331" data-name="Rectangle 331" class="cls-1" width="1.613" height="1.613"/>
    </g>
  </g>
  <g id="Group_149" data-name="Group 149" transform="translate(24.194 6.452)">
    <g id="Group_148" data-name="Group 148">
      <rect id="Rectangle_332" data-name="Rectangle 332" class="cls-1" width="1.613" height="1.613"/>
    </g>
  </g>
  <g id="Group_151" data-name="Group 151" transform="translate(27.419 6.452)">
    <g id="Group_150" data-name="Group 150">
      <rect id="Rectangle_333" data-name="Rectangle 333" class="cls-1" width="1.613" height="1.613"/>
    </g>
  </g>
  <g id="Group_153" data-name="Group 153" transform="translate(30.645 6.452)">
    <g id="Group_152" data-name="Group 152">
      <rect id="Rectangle_334" data-name="Rectangle 334" class="cls-1" width="1.613" height="1.613"/>
    </g>
  </g>
  <g id="Group_155" data-name="Group 155" transform="translate(14.516 33.871)">
    <g id="Group_154" data-name="Group 154">
      <rect id="Rectangle_335" data-name="Rectangle 335" class="cls-1" width="32.258" height="1.613"/>
    </g>
  </g>
  <g id="Group_157" data-name="Group 157" transform="translate(30.645 37.097)">
    <g id="Group_156" data-name="Group 156">
      <path id="Path_75" data-name="Path 75" class="cls-1" d="M304,368v9.677h16.129V368Zm14.516,8.065h-12.9v-6.452h12.9Z" transform="translate(-304 -368)"/>
    </g>
  </g>
  <g id="Group_159" data-name="Group 159" transform="translate(14.516 37.097)">
    <g id="Group_158" data-name="Group 158">
      <rect id="Rectangle_336" data-name="Rectangle 336" class="cls-1" width="14.516" height="1.613"/>
    </g>
  </g>
  <g id="Group_161" data-name="Group 161" transform="translate(14.516 40.323)">
    <g id="Group_160" data-name="Group 160">
      <rect id="Rectangle_337" data-name="Rectangle 337" class="cls-1" width="14.516" height="1.613"/>
    </g>
  </g>
  <g id="Group_163" data-name="Group 163" transform="translate(14.516 43.548)">
    <g id="Group_162" data-name="Group 162">
      <rect id="Rectangle_338" data-name="Rectangle 338" class="cls-1" width="14.516" height="1.613"/>
    </g>
  </g>
</svg>
