<svg xmlns="http://www.w3.org/2000/svg" viewBox="0 0 50 50"><defs><style>.a{fill:#fff;}</style></defs><g transform="translate(-733 -273)"><g transform="translate(762.297 291.555)"><path class="a" d="M300.977,190a.977.977,0,1,0,.977.977A.977.977,0,0,0,300.977,190Z" transform="translate(-300 -190)"/></g><g transform="translate(733 273)"><path class="a" d="M48.856,43.332,35.82,30.3a19.356,19.356,0,0,0,3.242-10.766A19.531,19.531,0,1,0,19.531,39.063,19.357,19.357,0,0,0,30.3,35.821l3.6,3.6,0,0,9.43,9.43a3.906,3.906,0,1,0,5.524-5.524Zm-19.018-9.57h0a17.6,17.6,0,1,1,3.925-3.925A17.663,17.663,0,0,1,29.838,33.762Zm2.049.885a19.6,19.6,0,0,0,2.761-2.761l2.771,2.771a23.7,23.7,0,0,1-2.761,2.761ZM47.475,47.475a1.952,1.952,0,0,1-2.762,0L36.042,38.8A25.662,25.662,0,0,0,38.8,36.042l8.672,8.672a1.951,1.951,0,0,1,0,2.761Z"/></g><g transform="translate(736.906 276.906)"><path class="a" d="M55.625,40A15.625,15.625,0,1,0,71.25,55.625,15.643,15.643,0,0,0,55.625,40Zm0,29.3A13.672,13.672,0,1,1,69.3,55.625,13.687,13.687,0,0,1,55.625,69.3Z" transform="translate(-40 -40)"/></g><g transform="translate(751.555 280.813)"><path class="a" d="M201.92,87.527A11.737,11.737,0,0,0,190.977,80a.977.977,0,0,0,0,1.953,9.832,9.832,0,0,1,9.121,6.274.977.977,0,1,0,1.823-.7Z" transform="translate(-190 -80)"/></g></g></svg>