<svg xmlns="http://www.w3.org/2000/svg" viewBox="0 0 22 24.842"><defs><style>.a{fill:#e2574c;}</style></defs><g transform="translate(0 0.001)"><path class="a" d="M118.8,259.609c0-.669-.465-1.068-1.284-1.068a2.807,2.807,0,0,0-.68.065v2.148a2.546,2.546,0,0,0,.55.043C118.26,260.8,118.8,260.354,118.8,259.609Z" transform="translate(-112.987 -246.881)"/><path class="a" d="M257.1,259.019a3.424,3.424,0,0,0-.745.065v4.759a2.99,2.99,0,0,0,.572.033,2.255,2.255,0,0,0,2.46-2.547A2.086,2.086,0,0,0,257.1,259.019Z" transform="translate(-246.215 -247.337)"/><path class="a" d="M52.112,8.886h-.6V6.008a.42.42,0,0,0-.005-.054.478.478,0,0,0-.116-.315L46.6.167l0,0a.483.483,0,0,0-.1-.081L46.472.063a.5.5,0,0,0-.1-.04L46.35.014A.486.486,0,0,0,46.238,0H34.467a.975.975,0,0,0-.974.974V8.886h-.6A1.392,1.392,0,0,0,31.5,10.278v7.241A1.393,1.393,0,0,0,32.9,18.911h.6v4.957a.975.975,0,0,0,.974.974H50.541a.975.975,0,0,0,.974-.974V18.911h.6A1.393,1.393,0,0,0,53.5,17.519V10.278A1.392,1.392,0,0,0,52.112,8.886ZM34.467.974H45.751V5.959a.487.487,0,0,0,.487.487h4.3v2.44H34.467ZM46.426,13.937a3.687,3.687,0,0,1-1.21,2.947,5.218,5.218,0,0,1-3.355.939,14.3,14.3,0,0,1-1.867-.108V10.57a14.718,14.718,0,0,1,2.224-.151A4.683,4.683,0,0,1,45.2,11.2,3.219,3.219,0,0,1,46.426,13.937Zm-12.7,3.81V10.57a13.52,13.52,0,0,1,2.223-.151A3.487,3.487,0,0,1,38.169,11a2.125,2.125,0,0,1,.776,1.684,2.322,2.322,0,0,1-.669,1.727,3.372,3.372,0,0,1-2.364.767,4.119,4.119,0,0,1-.561-.033v2.6h-1.63ZM50.541,23.6H34.467V18.911H50.541V23.6Zm1.412-11.782h-2.8v1.662h2.612v1.338H49.157v2.925h-1.65V10.473h4.446Z" transform="translate(-31.504)"/></g></svg>