<svg xmlns="http://www.w3.org/2000/svg" viewBox="0 0 22 24.842"><defs><style>.a{fill:#669525;}</style></defs><path class="a" d="M51.968,8.886h-.6V6.008a.476.476,0,0,0,0-.054.478.478,0,0,0-.116-.315L46.461.167l0,0a.479.479,0,0,0-.1-.081L46.328.063a.511.511,0,0,0-.1-.04L46.206.014A.484.484,0,0,0,46.094,0H34.323a.975.975,0,0,0-.974.974V8.886h-.6a1.392,1.392,0,0,0-1.392,1.392v7.241a1.393,1.393,0,0,0,1.392,1.392h.6v4.957a.975.975,0,0,0,.974.974H50.4a.975.975,0,0,0,.974-.974V18.911h.6a1.393,1.393,0,0,0,1.392-1.392v-7.24A1.392,1.392,0,0,0,51.968,8.886ZM34.323.974H45.607V5.958a.487.487,0,0,0,.487.487h4.3v2.44H34.323Zm9.869,13.282c-.957-.333-1.582-.863-1.582-1.7,0-.983.821-1.735,2.18-1.735a3.526,3.526,0,0,1,1.47.291l-.29,1.051a2.742,2.742,0,0,0-1.205-.274c-.564,0-.838.257-.838.556,0,.368.325.53,1.068.812,1.017.376,1.5.906,1.5,1.718,0,.966-.744,1.787-2.325,1.787a3.766,3.766,0,0,1-1.632-.351l.265-1.077a3.328,3.328,0,0,0,1.445.359c.6,0,.915-.248.915-.624C45.158,14.71,44.884,14.5,44.192,14.257Zm-2.2,1.325v1.094h-3.6V10.914H39.7v4.668Zm-7.778,1.094H32.722l1.667-2.916-1.607-2.847h1.5l.5,1.052c.171.351.3.632.436.958h.017c.137-.368.248-.624.393-.958l.487-1.052H37.6l-1.624,2.812,1.71,2.95h-1.5l-.522-1.043c-.213-.4-.35-.7-.513-1.034h-.017c-.12.333-.265.633-.445,1.034ZM50.4,23.6H34.323V18.911H50.4V23.6Zm.009-6.928-.522-1.043c-.214-.4-.35-.7-.513-1.034h-.017c-.12.333-.265.633-.445,1.034l-.478,1.043H46.944l1.667-2.916L47,10.914h1.5l.5,1.052c.171.351.3.632.436.958h.017c.137-.368.247-.624.393-.958l.487-1.052h1.488L50.2,13.726l1.71,2.95h-1.5Z" transform="translate(-31.36 0)"/></svg>